# xmcd
#
# Track frame offsets: 
#        150
#        14404
#        25676
#        38950
#        50647
#        63058
#        73205
#        85880
#        97163
#        109371
#        122731
#        135536
#        146520
#        158011
#        168107
#        178623
#        190229
#        203288
#        216533
#        226061
#
# Disc length: 3193 seconds
#
# Revision: 0
# Processed by: cddbd v1.5PL3 Copyright (c) Steve Scherf et al.
# Submitted via: ExactAudioCopy v0.95a5
#
DISCID=160c7714
DTITLE=Slim Whitman - 20 Greatest Hits
DYEAR=2001
DGENRE=Country
TTITLE0=Indian Love Call
TTITLE1=Singing Hills
TTITLE2=Something Beautiful To Remember
TTITLE3=Tomorrow Never Comes
TTITLE4=More Than Yesterday
TTITLE5=The Twelth Of Never
TTITLE6=North Wind
TTITLE7=Its' No Sin
TTITLE8=My Heart Is Broken In Three
TTITLE9=I'll Take You Home Again Kathleen
TTITLE10=Secret Love
TTITLE11=Keep It A Secret
TTITLE12=Cattle Call
TTITLE13=It's A Sin To Tell A Lie
TTITLE14=Rose Marie
TTITLE15=Rainbows Are Back In Style
TTITLE16=Guess Who
TTITLE17=Love Song Of The Waterfall
TTITLE18=I Remember You
TTITLE19=That Silver-Haired Daddy Of Mine
EXTD=
EXTT0=
EXTT1=
EXTT2=
EXTT3=
EXTT4=
EXTT5=
EXTT6=
EXTT7=
EXTT8=
EXTT9=
EXTT10=
EXTT11=
EXTT12=
EXTT13=
EXTT14=
EXTT15=
EXTT16=
EXTT17=
EXTT18=
EXTT19=
PLAYORDER=
